<svg xmlns="http://www.w3.org/2000/svg" width="16" height="16" viewBox="0 0 16 16">
  <g fill="none" fill-rule="evenodd">
    <path stroke="#fff" stroke-width="1.5" d="M14.25,5 L14.25,10 C14.25,10.482751 14.0981395,10.9300855 13.8392033,11.2965126 C13.4772161,11.8087699 12.9069969,12.1637054 12.2510691,12.2362467 L12.250398,14.5988775 L8.72708173,12.25 L4,12.25 C3.37867966,12.25 2.81617966,11.9981602 2.40900974,11.5909903 C2.00183983,11.1838203 1.75,10.6213203 1.75,10 L1.75,5 C1.75,4.37867966 2.00183983,3.81617966 2.40900974,3.40900974 C2.81617966,3.00183983 3.37867966,2.75 4,2.75 L12,2.75 C12.6213203,2.75 13.1838203,3.00183983 13.5909903,3.40900974 C13.9981602,3.81617966 14.25,4.37867966 14.25,5 Z"/>
    <line x1="5.744" x2="7.226" y1="9" y2="9" stroke="#fff" stroke-linecap="square" stroke-width="1.5"/>
    <line x1="5.744" x2="10.231" y1="6" y2="6" stroke="#fff" stroke-linecap="square" stroke-width="1.5"/>
  </g>
</svg>
