<svg xmlns="http://www.w3.org/2000/svg" width="16" height="16" viewBox="0 0 16 16">
  <g fill="none" fill-rule="evenodd">
    <g transform="rotate(135 6.555 5.111)">
      <path fill="#fff" fill-rule="nonzero" d="M9.599904,0.935286303 C9.65436444,0.935286303 9.70780807,0.939639799 9.75990586,0.948017762 L9.75899342,0.935286303 C10.4306426,0.935286303 11.0900915,1.11476221 11.6691027,1.45514248 L14.8044569,3.29830679 L11.6599193,5.22129785 C11.1591607,5.52752868 10.5929341,5.7075959 10.0098011,5.74782784 L9.75899342,5.7564689 L9.75990586,5.74373744 C9.70780807,5.75211541 9.65436444,5.7564689 9.599904,5.7564689 L2.34090909,5.7564689 C1.23633959,5.7564689 0.340909091,4.8610384 0.340909091,3.7564689 L0.340909091,2.9352863 C0.340909091,1.8307168 1.23633959,0.935286303 2.34090909,0.935286303 L9.599904,0.935286303 Z M9.564,2.435 L2.34090909,2.4352863 C2.0954492,2.4352863 1.89130072,2.61216146 1.84896476,2.84541067 L1.84090909,2.9352863 L1.84090909,3.7564689 C1.84090909,4.00192879 2.01778425,4.20607727 2.25103346,4.24841323 L2.34090909,4.2564689 L9.558,4.256 L10.5579091,4.0952863 L10.5579091,2.5932863 L9.564,2.435 Z"/>
      <line x1="3.769" x2="3.769" y1="1.417" y2="5.274" stroke="#fff" stroke-width="1.5"/>
    </g>
    <line x2="12" y1="1" y2="1" stroke="#fff" stroke-width="1.5" transform="translate(2 13)"/>
  </g>
</svg>
