<svg xmlns="http://www.w3.org/2000/svg" width="101" height="32" viewBox="0 0 101 32">
  <g fill="none" fill-rule="evenodd">
    <circle cx="16" cy="16" r="16" fill="#E95420"/>
    <g stroke="#FFF" stroke-width="1.5" transform="translate(10 8)">
      <path d="M10.5714286,5.71428571 C10.5714286,7.45187007 9.65889966,8.97618248 8.28735497,9.83479167 L8.28571429,12.5714286 C8.28571429,13.2815089 7.99789734,13.9243661 7.5325603,14.3897032 C7.06722325,14.8550402 6.4243661,15.1428571 5.71428571,15.1428571 C5.00420533,15.1428571 4.36134818,14.8550402 3.89601113,14.3897032 C3.43067409,13.9243661 3.14285714,13.2815089 3.14285714,12.5713453 L3.14259129,9.83565202 C1.77028167,8.97720088 0.857142857,7.45245062 0.857142857,5.71428571 C0.857142857,4.37302275 1.40079709,3.15873704 2.27976706,2.27976706 C3.15873704,1.40079709 4.37302275,0.857142857 5.71428571,0.857142857 C7.05554867,0.857142857 8.2698344,1.40079709 9.14880434,2.27976706 C10.0277743,3.15873704 10.5714286,4.37302275 10.5714286,5.71428571 Z"/>
      <polyline points="4.141 8.559 4.899 6.166 7.298 5.386" transform="scale(1 -1) rotate(45 22.553 0)"/>
      <line x1="2.857" x2="8.571" y1="12.413" y2="12.413"/>
    </g>
    <path fill="#FFF" fill-rule="nonzero" d="M42.928,22 L42.928,10.912 L41.376,10.912 L41.376,22 L42.928,22 Z M49.296,22.192 C49.9893333,22.192 50.6026667,22.144 51.136,22.048 C51.6693333,21.952 52.1066667,21.856 52.448,21.76 L52.448,21.76 L52.448,9.584 L50.96,9.84 L50.96,14.048 C50.7786667,13.9306667 50.504,13.808 50.136,13.68 C49.768,13.552 49.344,13.488 48.864,13.488 C48.2666667,13.488 47.736,13.5946667 47.272,13.808 C46.808,14.0213333 46.416,14.32 46.096,14.704 C45.776,15.088 45.5333333,15.5466667 45.368,16.08 C45.2026667,16.6133333 45.12,17.2 45.12,17.84 C45.12,18.512 45.2186667,19.1173333 45.416,19.656 C45.6133333,20.1946667 45.8933333,20.6506667 46.256,21.024 C46.6186667,21.3973333 47.056,21.6853333 47.568,21.888 C48.08,22.0906667 48.656,22.192 49.296,22.192 Z M49.312,20.88 C48.512,20.88 47.872,20.616 47.392,20.088 C46.912,19.56 46.672,18.8106667 46.672,17.84 C46.672,17.4133333 46.7146667,17.0133333 46.8,16.64 C46.8853333,16.2666667 47.024,15.944 47.216,15.672 C47.408,15.4 47.656,15.1866667 47.96,15.032 C48.264,14.8773333 48.6293333,14.8 49.056,14.8 C49.4613333,14.8 49.8346667,14.8693333 50.176,15.008 C50.5173333,15.1466667 50.7786667,15.2906667 50.96,15.44 L50.96,15.44 L50.96,20.704 C50.8106667,20.7466667 50.6,20.7866667 50.328,20.824 C50.056,20.8613333 49.7173333,20.88 49.312,20.88 Z M58.736,22.192 C59.312,22.192 59.8266667,22.1386667 60.28,22.032 C60.7333333,21.9253333 61.0506667,21.824 61.232,21.728 L61.232,21.728 L61.024,20.48 C60.8426667,20.5653333 60.5733333,20.6533333 60.216,20.744 C59.8586667,20.8346667 59.4186667,20.88 58.896,20.88 C57.968,20.88 57.2853333,20.656 56.848,20.208 C56.4106667,19.76 56.16,19.104 56.096,18.24 L56.096,18.24 L61.792,18.24 C61.8026667,18.1546667 61.808,18.0613333 61.808,17.96 L61.808,17.96 L61.808,17.712 C61.808,16.2826667 61.5093333,15.2186667 60.912,14.52 C60.3146667,13.8213333 59.456,13.472 58.336,13.472 C57.856,13.472 57.3866667,13.5626667 56.928,13.744 C56.4693333,13.9253333 56.064,14.1973333 55.712,14.56 C55.36,14.9226667 55.0773333,15.3786667 54.864,15.928 C54.6506667,16.4773333 54.544,17.12 54.544,17.856 C54.544,18.4853333 54.6266667,19.064 54.792,19.592 C54.9573333,20.12 55.2106667,20.576 55.552,20.96 C55.8933333,21.344 56.328,21.6453333 56.856,21.864 C57.384,22.0826667 58.0106667,22.192 58.736,22.192 Z M60.256,17.04 L56.128,17.04 C56.16,16.752 56.2266667,16.4693333 56.328,16.192 C56.4293333,15.9146667 56.5706667,15.6693333 56.752,15.456 C56.9333333,15.2426667 57.1546667,15.0693333 57.416,14.936 C57.6773333,14.8026667 57.9786667,14.736 58.32,14.736 C58.928,14.736 59.4053333,14.952 59.752,15.384 C60.0986667,15.816 60.2666667,16.368 60.256,17.04 L60.256,17.04 Z M66.592,22.176 C66.9226667,22.176 67.256,22.1626667 67.592,22.136 C67.928,22.1093333 68.24,22.08 68.528,22.048 C68.816,22.016 69.0746667,21.9813333 69.304,21.944 C69.5333333,21.9066667 69.712,21.8773333 69.84,21.856 L69.84,21.856 L69.84,16.656 C69.84,16.1866667 69.7866667,15.7573333 69.68,15.368 C69.5733333,14.9786667 69.3946667,14.6426667 69.144,14.36 C68.8933333,14.0773333 68.5626667,13.8586667 68.152,13.704 C67.7413333,13.5493333 67.2373333,13.472 66.64,13.472 C66.1173333,13.472 65.632,13.512 65.184,13.592 C64.736,13.672 64.416,13.7546667 64.224,13.84 L64.224,13.84 L64.4,15.072 C64.5813333,14.9973333 64.856,14.9253333 65.224,14.856 C65.592,14.7866667 66.0213333,14.752 66.512,14.752 C66.896,14.752 67.208,14.808 67.448,14.92 C67.688,15.032 67.8773333,15.1813333 68.016,15.368 C68.1546667,15.5546667 68.2506667,15.768 68.304,16.008 C68.3573333,16.248 68.384,16.4906667 68.384,16.736 L68.384,16.736 L68.384,17.152 C68.3413333,17.1413333 68.2666667,17.1253333 68.16,17.104 C68.0533333,17.0826667 67.928,17.0586667 67.784,17.032 C67.64,17.0053333 67.488,16.984 67.328,16.968 C67.168,16.952 67.0133333,16.944 66.864,16.944 C66.3946667,16.944 65.9466667,16.992 65.52,17.088 C65.0933333,17.184 64.72,17.3333333 64.4,17.536 C64.08,17.7386667 63.8266667,18.0053333 63.64,18.336 C63.4533333,18.6666667 63.36,19.0613333 63.36,19.52 C63.36,20 63.44,20.4106667 63.6,20.752 C63.76,21.0933333 63.984,21.368 64.272,21.576 C64.56,21.784 64.9013333,21.936 65.296,22.032 C65.6906667,22.128 66.1226667,22.176 66.592,22.176 Z M66.768,20.928 C66.1813333,20.928 65.7173333,20.824 65.376,20.616 C65.0346667,20.408 64.864,20.0373333 64.864,19.504 C64.864,19.216 64.9333333,18.984 65.072,18.808 C65.2106667,18.632 65.384,18.4933333 65.592,18.392 C65.8,18.2906667 66.0293333,18.224 66.28,18.192 C66.5306667,18.16 66.768,18.144 66.992,18.144 C67.3333333,18.144 67.624,18.1626667 67.864,18.2 C68.104,18.2373333 68.2773333,18.2826667 68.384,18.336 L68.384,18.336 L68.384,20.816 C68.2026667,20.8586667 67.976,20.888 67.704,20.904 C67.432,20.92 67.12,20.928 66.768,20.928 Z M73.952,22 L73.952,16.88 L79.376,16.88 L79.376,22 L80.928,22 L80.928,10.912 L79.376,10.912 L79.376,15.536 L73.952,15.536 L73.952,10.912 L72.4,10.912 L72.4,22 L73.952,22 Z M86.912,22.176 C87.648,22.176 88.296,22.128 88.856,22.032 C89.416,21.936 89.8666667,21.8453333 90.208,21.76 L90.208,21.76 L90.208,13.68 L88.72,13.68 L88.72,20.704 C88.6666667,20.7253333 88.5786667,20.744 88.456,20.76 C88.3333333,20.776 88.1973333,20.792 88.048,20.808 C87.8986667,20.824 87.7386667,20.8373333 87.568,20.848 C87.3973333,20.8586667 87.232,20.864 87.072,20.864 C86.3146667,20.864 85.776,20.6453333 85.456,20.208 C85.136,19.7706667 84.976,19.0453333 84.976,18.032 L84.976,18.032 L84.976,13.68 L83.488,13.68 L83.488,18.352 C83.488,18.9173333 83.5466667,19.432 83.664,19.896 C83.7813333,20.36 83.9733333,20.7626667 84.24,21.104 C84.5066667,21.4453333 84.8586667,21.7093333 85.296,21.896 C85.7333333,22.0826667 86.272,22.176 86.912,22.176 Z M95.92,22.192 C96.56,22.192 97.136,22.0906667 97.648,21.888 C98.16,21.6853333 98.5973333,21.3973333 98.96,21.024 C99.3226667,20.6506667 99.6026667,20.1946667 99.8,19.656 C99.9973333,19.1173333 100.096,18.512 100.096,17.84 C100.096,17.2 100.013333,16.6133333 99.848,16.08 C99.6826667,15.5466667 99.44,15.088 99.12,14.704 C98.8,14.32 98.408,14.0213333 97.944,13.808 C97.48,13.5946667 96.9493333,13.488 96.352,13.488 C95.872,13.488 95.448,13.552 95.08,13.68 C94.712,13.808 94.4373333,13.9306667 94.256,14.048 L94.256,14.048 L94.256,9.584 L92.768,9.84 L92.768,21.76 C93.1093333,21.856 93.5466667,21.952 94.08,22.048 C94.6133333,22.144 95.2266667,22.192 95.92,22.192 Z M95.904,20.88 C95.4986667,20.88 95.16,20.8613333 94.888,20.824 C94.616,20.7866667 94.4053333,20.7466667 94.256,20.704 L94.256,20.704 L94.256,15.44 C94.4373333,15.2906667 94.6986667,15.1466667 95.04,15.008 C95.3813333,14.8693333 95.7546667,14.8 96.16,14.8 C96.5866667,14.8 96.952,14.8773333 97.256,15.032 C97.56,15.1866667 97.808,15.4 98,15.672 C98.192,15.944 98.3306667,16.2666667 98.416,16.64 C98.5013333,17.0133333 98.544,17.4133333 98.544,17.84 C98.544,18.8106667 98.304,19.56 97.824,20.088 C97.344,20.616 96.704,20.88 95.904,20.88 Z"/>
  </g>
</svg>
