<svg xmlns="http://www.w3.org/2000/svg" width="32" height="32" viewBox="0 0 32 32">
  <path fill="#666" d="M32,18.5520111 C32,17.4868239 31.5144828,16.4660194 30.7641379,15.8002774 C31.2937931,15.0901526 31.5144828,14.2024965 31.4262069,13.3148405 C31.2496552,11.4507628 29.5724138,9.94174757 27.6303448,9.94174757 L21.8924138,9.94174757 L22.2455172,7.19001387 C22.3337931,6.34674064 22.3337931,5.63661581 22.1572414,4.92649098 C21.4951724,2.04160888 18.9351724,0 15.977931,0 C15.3158621,0 14.6537931,0.26629681 14.1682759,0.754507628 C13.6827586,1.24271845 13.417931,1.86407767 13.417931,2.52981969 L13.417931,6.16920943 C13.417931,7.76699029 12.9765517,9.27600555 12.137931,10.6518724 L10.5931034,13.1373093 C10.3724138,13.4923717 10.0634483,13.7586685 9.71034483,13.9361997 C9.40137931,12.9597781 8.51862069,12.2496533 7.45931034,12.2496533 L2.38344828,12.2496533 C1.05931034,12.2496533 0,13.3148405 0,14.6463245 L0,29.6033287 C0,30.9348128 1.05931034,32 2.38344828,32 L7.54758621,32 C8.87172414,32 9.93103448,30.9348128 9.93103448,29.6033287 L9.93103448,29.2482663 C11.0786207,30.2690707 12.5793103,30.89043 14.2124138,30.89043 L25.4234483,30.89043 C26.4386207,30.89043 27.4537931,30.4466019 28.16,29.7364771 C28.8662069,29.0263523 29.2193103,28.0943135 29.1751724,27.1178918 C29.1751724,26.7628294 29.1310345,26.4521498 28.9986207,26.0970874 C30.1903448,25.4757282 30.9848276,24.2330097 30.9848276,22.8127601 C30.9848276,22.3245492 30.8965517,21.8363384 30.72,21.3925104 C31.5144828,20.6380028 32,19.6171983 32,18.5520111 Z M7.68,29.5589459 C7.68,29.6477115 7.59172414,29.7364771 7.50344828,29.7364771 L2.38344828,29.7364771 C2.29517241,29.7364771 2.20689655,29.6477115 2.20689655,29.5589459 L2.20689655,14.6019417 C2.20689655,14.5131761 2.29517241,14.4244105 2.38344828,14.4244105 L7.54758621,14.4244105 C7.63586207,14.4244105 7.72413793,14.5131761 7.72413793,14.6019417 L7.72413793,29.5589459 L7.68,29.5589459 Z M28.9544828,19.8834951 C28.6013793,20.0610264 28.3365517,20.371706 28.2482759,20.7711512 C28.16,21.1705964 28.2482759,21.5700416 28.5131034,21.8807212 C28.7337931,22.147018 28.822069,22.4576976 28.822069,22.7683773 C28.822069,23.4785021 28.2924138,24.0998613 27.5862069,24.2330097 C27.1448276,24.3217753 26.7475862,24.5880721 26.5710345,25.0319001 C26.3944828,25.4757282 26.4386207,25.9195562 26.7034483,26.3190014 C26.88,26.5409154 26.9682759,26.851595 26.9682759,27.1622746 C26.9682759,27.517337 26.8358621,27.9167822 26.5710345,28.1830791 C26.262069,28.4937587 25.8206897,28.6712899 25.3793103,28.6712899 L14.1682759,28.6712899 C11.8289655,28.6712899 9.88689655,26.7628294 9.88689655,24.3661581 L9.88689655,16.1997226 C10.9903448,15.9334258 11.9172414,15.2676838 12.5351724,14.2912621 L14.08,11.8058252 C15.1393103,10.1192788 15.7131034,8.16643551 15.7131034,6.16920943 L15.7131034,2.52981969 C15.7131034,2.44105409 15.7572414,2.35228849 15.8013793,2.30790569 C15.8455172,2.26352288 15.9337931,2.21914008 16.022069,2.21914008 C16.022069,2.21914008 16.022069,2.21914008 16.022069,2.21914008 C17.9641379,2.21914008 19.5972414,3.55062413 20.0386207,5.4147018 C20.1268966,5.81414702 20.1710345,6.30235784 20.0827586,6.87933426 L19.6855172,9.98613037 C19.5972414,10.518724 19.7737931,11.0513176 20.1268966,11.4951456 C20.48,11.8945908 21.0096552,12.1608877 21.5393103,12.1608877 L27.6303448,12.1608877 C28.3806897,12.1608877 29.1310345,12.7822469 29.2193103,13.4923717 C29.2634483,14.0249653 28.9986207,14.5575589 28.5572414,14.8682386 C28.16,15.1345354 27.9393103,15.6227462 27.9834483,16.110957 C28.0275862,16.5991678 28.3365517,16.998613 28.822069,17.1761442 C29.3958621,17.3980583 29.7489655,17.9306519 29.7489655,18.5520111 C29.7931034,19.1289875 29.4841379,19.6171983 28.9544828,19.8834951 Z"/>
</svg>
